<?xml version="1.0" encoding="UTF-8" standalone="no"?>
<!DOCTYPE svg PUBLIC "-//W3C//DTD SVG 1.1//EN" "http://www.w3.org/Graphics/SVG/1.1/DTD/svg11.dtd">
<svg width="100%" height="100%" viewBox="0 0 2481 3508" version="1.1" xmlns="http://www.w3.org/2000/svg" xmlns:xlink="http://www.w3.org/1999/xlink" xml:space="preserve" xmlns:serif="http://www.serif.com/" style="fill-rule:evenodd;clip-rule:evenodd;stroke-linejoin:round;stroke-miterlimit:2;">
    <g id="レイヤー1">
        <g transform="matrix(1,0,0,1,208.505,37.4763)">
            <g transform="matrix(91.6667,0,0,91.6667,1680.47,157.176)">
            </g>
            <text x="382.836px" y="157.176px" style="font-family:'ZenAntique-Regular', 'Zen Antique';font-size:91.667px;">発注・完了報告・請求明細書</text>
            <rect x="382.836" y="169.367" width="1297.63" height="1.833"/>
        </g>
        <g transform="matrix(1,0,0,1.17769,1.59872e-14,-189.486)">
            <rect x="118.11" y="501.453" width="1623.04" height="571.546" style="fill:none;fill-rule:nonzero;stroke:white;stroke-width:0.92px;"/>
            <g transform="matrix(1,0,0,0.849123,0,75.658)">
                <rect x="946.621" y="501.453" width="794.532" height="60.937"/>
            </g>
            <g transform="matrix(1,0,0,0.849123,0,75.658)">
                <text x="401.116px" y="542.511px" style="font-family:'ZenOldMincho-Regular', 'Zen Old Mincho';font-size:37.5px;">発　注　番　号</text>
                <g transform="matrix(37.5,0,0,37.5,1437.64,538.345)">
                </g>
                <text x="1250.14px" y="538.345px" style="font-family:'ZenOldMincho-Regular', 'Zen Old Mincho';font-size:37.5px;fill:white;">管　轄　店</text>
                <text x="337.932px" y="695.18px" style="font-family:'ZenOldMincho-Regular', 'Zen Old Mincho';font-size:66.667px;">%OrderNo%</text>
                <g transform="matrix(66.6667,0,0,66.6667,1581.19,695.18)">
                </g>
                <text x="1106.59px" y="695.18px" style="font-family:'ZenOldMincho-Regular', 'Zen Old Mincho';font-size:66.667px;">%Jurisdiction%</text>
                <text x="177.798px" y="868.074px" style="font-family:'ZenOldMincho-Regular', 'Zen Old Mincho';font-size:58.333px;">物件名</text>
                <g transform="matrix(37.5,0,0,37.5,923.332,860.511)">
                </g>
                <text x="613.32px" y="860.511px" style="font-family:'ZenOldMincho-Regular', 'Zen Old Mincho';font-size:37.5px;">%PropertyName%</text>
                <g transform="matrix(58.3333,0,0,58.3333,1369.31,868.074)">
                </g>
                <text x="1135.98px" y="868.074px" style="font-family:'ZenOldMincho-Regular', 'Zen Old Mincho';font-size:58.333px;">部屋番号</text>
                <g transform="matrix(37.5,0,0,37.5,1666.06,860.511)">
                </g>
                <text x="1420.21px" y="860.511px" style="font-family:'ZenOldMincho-Regular', 'Zen Old Mincho';font-size:50px;">%RoomNo%</text>
                <text x="148.631px" y="1011.91px" style="font-family:'ZenOldMincho-Regular', 'Zen Old Mincho';font-size:58.333px;">物件住所</text>
                <g transform="matrix(37.5,0,0,37.5,791.12,1004.35)">
                </g>
                <text x="436.107px" y="1004.35px" style="font-family:'ZenOldMincho-Regular', 'Zen Old Mincho';font-size:37.5px;">%PropertyAddress%</text>
                <text x="177.798px" y="1142.07px" style="font-family:'ZenOldMincho-Regular', 'Zen Old Mincho';font-size:58.333px;">備　考</text>
                <g transform="matrix(37.5,0,0,37.5,660.77,1134.51)">
                </g>
                <text x="436.107px" y="1134.51px" style="font-family:'ZenOldMincho-Regular', 'Zen Old Mincho';font-size:37.5px;">%Comment%</text>
                <path d="M946.621,501.453L946.621,762.903M412.485,762.903L412.485,1174.55M1124.17,762.903L1124.17,914.229M1381.12,762.903L1381.12,914.229" style="fill:none;stroke:black;stroke-width:3.33px;"/>
                <path d="M118.11,501.453L118.11,1174.55M1741.15,501.453L1741.15,1174.55" style="fill:none;stroke:black;stroke-width:5.72px;stroke-linecap:square;"/>
                <path d="M118.11,562.39L1741.15,562.39M118.11,762.903L1741.15,762.903M118.11,914.229L1741.15,914.229M118.11,1050.57L1741.15,1050.57" style="fill:none;stroke:black;stroke-width:3.33px;"/>
                <path d="M118.11,501.453L1741.15,501.453M118.11,1174.55L1741.15,1174.55" style="fill:none;stroke:black;stroke-width:5.72px;stroke-linecap:square;"/>
            </g>
        </g>
        <g transform="matrix(1,0,0,1,2,-2.27374e-13)">
            <path d="M1011.43,270.273L1011.43,381.474C1011.43,384.926 1008.63,387.724 1005.18,387.724L118.11,387.724C114.658,387.724 111.86,384.926 111.86,381.474L111.86,270.273C111.86,266.822 114.658,264.023 118.11,264.023L1005.18,264.023C1008.63,264.023 1011.43,266.822 1011.43,270.273ZM1005.18,270.273L118.11,270.273L118.11,381.474L1005.18,381.474L1005.18,270.273Z"/>
        </g>
        <g transform="matrix(0.762483,0,0,1,972.719,-2.27374e-13)">
            <path d="M1013.38,270.273L1013.38,381.474C1013.38,384.926 1009.71,387.724 1005.18,387.724L118.11,387.724C113.583,387.724 109.913,384.926 109.913,381.474L109.913,270.273C109.913,266.822 113.583,264.023 118.11,264.023L1005.18,264.023C1009.71,264.023 1013.38,266.822 1013.38,270.273ZM1005.18,270.273L118.11,270.273L118.11,381.474L1005.18,381.474L1005.18,270.273Z"/>
        </g>
        <g>
            <text x="138.806px" y="1270.93px" style="font-family:'ZenOldMincho-Regular', 'Zen Old Mincho';font-size:50px;">依　頼　日</text>
            <g transform="matrix(50,0,0,50,765.223,1268.42)">
            </g>
            <text x="433.123px" y="1268.42px" style="font-family:'ZenOldMincho-Regular', 'Zen Old Mincho';font-size:50px;">%OrderDate%</text>
            <text x="1202.97px" y="1270.93px" style="font-family:'ZenOldMincho-Regular', 'Zen Old Mincho';font-size:50px;">写真</text>
            <text x="1388.08px" y="1268.16px" style="font-family:'ZenOldMincho-Regular', 'Zen Old Mincho';font-size:41.667px;">%IsPhotoRequired%</text>
            <g transform="matrix(50,0,0,50,363.806,1373.47)">
            </g>
            <text x="163.806px" y="1365.47px" style="font-family:'ZenOldMincho-Regular', 'Zen Old Mincho';font-size:50px;">完了期日</text>
            <text x="433.123px" y="1364.99px" style="font-family:'ZenOldMincho-Regular', 'Zen Old Mincho';font-size:50px;">%Deadline%</text>
            <g transform="matrix(50,0,0,50,1624.82,1373.47)">
            </g>
            <text x="1243.17px" y="1363.47px" style="font-family:'ZenOldMincho-Regular', 'Zen Old Mincho';font-size:50px;">%IsEmergency%</text>
            <path d="M118.11,1197.25L118.11,1400.15M1741.15,1197.25L1741.15,1400.15" style="fill:none;stroke:black;stroke-width:5.83px;"/>
            <path d="M409.501,1200.17L409.501,1397.24M1126.84,1200.17L1126.84,1397.24M1379.09,1200.17L1379.09,1296.73" style="fill:none;stroke:black;stroke-width:3.75px;"/>
            <path d="M118.11,1200.17L1741.15,1200.17M118.11,1397.24L1741.15,1397.24" style="fill:none;stroke:black;stroke-width:5.83px;"/>
            <path d="M118.11,1296.73L1741.15,1296.73" style="fill:none;stroke:black;stroke-width:3.75px;"/>
        </g>
        <g>
            <text x="1809.25px" y="1164.38px" style="font-family:'ZenOldMincho-Regular', 'Zen Old Mincho';font-size:41.667px;">事前TEL</text>
            <text x="2006.88px" y="1165.63px" style="font-family:'ZenOldMincho-Regular', 'Zen Old Mincho';font-size:41.667px;">%IsCallRequired%</text>
            <g transform="matrix(50,0,0,50,1969.44,1266.6)">
            </g>
            <text x="1819.43px" y="1266.6px" style="font-family:'ZenOldMincho-Regular', 'Zen Old Mincho';font-size:50px;">入居者</text>
            <text x="2006.88px" y="1263.57px" style="font-family:'ZenOldMincho-Regular', 'Zen Old Mincho';font-size:41.667px;">%RgidentName%</text>
            <text x="1850.91px" y="1362.77px" style="font-family:'ZenOldMincho-Regular', 'Zen Old Mincho';font-size:41.667px;">TEL</text>
            <text x="2006.88px" y="1364.02px" style="font-family:'ZenOldMincho-Regular', 'Zen Old Mincho';font-size:41.667px;">%RegidentPhone%</text>
            <path d="M1802.8,1096.74L1802.8,1400.15M2340.53,1096.74L2340.53,1400.15" style="fill:none;stroke:black;stroke-width:5.83px;"/>
            <path d="M1986.07,1099.66L1986.07,1397.24" style="fill:none;stroke:black;stroke-width:3.75px;"/>
            <path d="M1802.8,1099.66L2340.53,1099.66M1802.8,1397.24L2340.53,1397.24" style="fill:none;stroke:black;stroke-width:5.83px;"/>
            <path d="M1802.8,1198.85L2340.53,1198.85M1802.8,1298.05L2340.53,1298.05" style="fill:none;stroke:black;stroke-width:3.75px;"/>
        </g>
        <g transform="matrix(1,0,0,1,-2,-2.27374e-13)">
            <rect x="118.11" y="1099.66" width="415.546" height="100.507" style="stroke:black;stroke-width:3.33px;"/>
            <g transform="matrix(50,0,0,50,425.883,1168.06)">
            </g>
            <text x="225.883px" y="1168.06px" style="font-family:'ZenOldMincho-Regular', 'Zen Old Mincho';font-size:50px;fill:white;">依頼事項</text>
        </g>
        <g transform="matrix(0.606375,0,0,1,1055.41,-2.27374e-13)">
            <rect x="118.11" y="1099.66" width="415.546" height="100.507" style="stroke:black;stroke-width:4.03px;"/>
            <g transform="matrix(1.64914,0,0,1,-76.6706,0)">
                <g transform="matrix(50,0,0,50,353.123,1168.06)">
                </g>
                <text x="135.073px" y="1168.06px" style="font-family:'ZenOldMincho-Regular', 'Zen Old Mincho';font-size:50px;fill:white;">LP担当者</text>
            </g>
        </g>
        <g transform="matrix(1,0,0,1.26598,1.59872e-14,-101.466)">
            <rect x="120.11" y="293.637" width="887.073" height="87.837" style="fill:none;fill-rule:nonzero;stroke:white;stroke-width:0.88px;"/>
            <g transform="matrix(1,0,0,0.7899,0,61.6931)">
                <g transform="matrix(58.3333,0,0,58.3333,971.98,370.412)">
                </g>
                <text x="155.313px" y="370.412px" style="font-family:'ZenOldMincho-Bold', 'Zen Old Mincho';font-weight:700;font-size:58.333px;">株式会社エス・クラフト　御中</text>
            </g>
        </g>
        <g>
            <rect x="1062.78" y="270.273" width="676.377" height="111.2" style="fill:none;fill-rule:nonzero;stroke:white;stroke-width:1px;"/>
            <g transform="matrix(58.3333,0,0,58.3333,1592.71,347.049)">
            </g>
            <text x="1209.22px" y="347.049px" style="font-family:'ZenOldMincho-Bold', 'Zen Old Mincho';font-weight:700;font-size:58.333px;">%TaskType%</text>
        </g>
    </g>
    <g id="レイヤー2">
        <g>
            <text x="417.915px" y="1494.22px" style="font-family:'ZenOldMincho-Regular', 'Zen Old Mincho';font-size:50px;">依　頼　内　容</text>
            <text x="1329.44px" y="1460.12px" style="font-family:'ZenOldMincho-Regular', 'Zen Old Mincho';font-size:37.5px;">予　　算</text>
            <g transform="matrix(41.6667,0,0,41.6667,2114.18,1491.19)">
            </g>
            <text x="1989.18px" y="1491.19px" style="font-family:'ZenOldMincho-Regular', 'Zen Old Mincho';font-size:41.667px;">備　考</text>
            <g transform="matrix(41.6667,0,0,41.6667,1195.61,1512.87)">
            </g>
            <text x="1112.27px" y="1512.87px" style="font-family:'ZenOldMincho-Regular', 'Zen Old Mincho';font-size:41.667px;">数量</text>
            <g transform="matrix(41.6667,0,0,41.6667,1385.78,1512.87)">
            </g>
            <text x="1302.45px" y="1512.87px" style="font-family:'ZenOldMincho-Regular', 'Zen Old Mincho';font-size:41.667px;">単価</text>
            <g transform="matrix(41.6667,0,0,41.6667,1636.28,1512.87)">
            </g>
            <text x="1552.94px" y="1512.87px" style="font-family:'ZenOldMincho-Regular', 'Zen Old Mincho';font-size:41.667px;">合計</text>
            <text x="135.661px" y="1586.7px" style="font-family:'ZenOldMincho-Regular', 'Zen Old Mincho';font-size:33.333px;">1</text>
            <g transform="matrix(41.6667,0,0,41.6667,500.147,1589.73)">
            </g>
            <text x="182.855px" y="1589.73px" style="font-family:'ZenOldMincho-Regular', 'Zen Old Mincho';font-size:41.667px;">%TaskName01%</text>
            <text x="1081.43px" y="1588.21px" style="font-family:'ZenOldMincho-Regular', 'Zen Old Mincho';font-size:37.5px;">%Q01%</text>
            <text x="1289.89px" y="1588.21px" style="font-family:'ZenOldMincho-Regular', 'Zen Old Mincho';font-size:37.5px;">%U01%</text>
            <text x="1585.64px" y="1588.21px" style="font-family:'ZenOldMincho-Regular', 'Zen Old Mincho';font-size:37.5px;">%P01%</text>
            <text x="1752.97px" y="1588.21px" style="font-family:'ZenOldMincho-Regular', 'Zen Old Mincho';font-size:37.5px;">%C01%</text>
            <text x="135.094px" y="1680.29px" style="font-family:'ZenOldMincho-Regular', 'Zen Old Mincho';font-size:33.333px;">2</text>
            <g transform="matrix(41.6667,0,0,41.6667,501.564,1683.32)">
            </g>
            <text x="182.855px" y="1683.32px" style="font-family:'ZenOldMincho-Regular', 'Zen Old Mincho';font-size:41.667px;">%TaskName02%</text>
            <text x="1080.8px" y="1681.8px" style="font-family:'ZenOldMincho-Regular', 'Zen Old Mincho';font-size:37.5px;">%Q02%</text>
            <text x="1288.62px" y="1681.8px" style="font-family:'ZenOldMincho-Regular', 'Zen Old Mincho';font-size:37.5px;">%U02%</text>
            <text x="1584.37px" y="1681.8px" style="font-family:'ZenOldMincho-Regular', 'Zen Old Mincho';font-size:37.5px;">%P02%</text>
            <text x="1752.97px" y="1681.8px" style="font-family:'ZenOldMincho-Regular', 'Zen Old Mincho';font-size:37.5px;">%C02%</text>
            <text x="135.277px" y="1765.15px" style="font-family:'ZenOldMincho-Regular', 'Zen Old Mincho';font-size:33.333px;">3</text>
            <g transform="matrix(41.6667,0,0,41.6667,501.105,1768.18)">
            </g>
            <text x="182.855px" y="1768.18px" style="font-family:'ZenOldMincho-Regular', 'Zen Old Mincho';font-size:41.667px;">%TaskName03%</text>
            <text x="1081px" y="1766.67px" style="font-family:'ZenOldMincho-Regular', 'Zen Old Mincho';font-size:37.5px;">%Q03%</text>
            <text x="1289.03px" y="1766.67px" style="font-family:'ZenOldMincho-Regular', 'Zen Old Mincho';font-size:37.5px;">%U03%</text>
            <text x="1584.78px" y="1766.67px" style="font-family:'ZenOldMincho-Regular', 'Zen Old Mincho';font-size:37.5px;">%P03%</text>
            <text x="1752.97px" y="1766.67px" style="font-family:'ZenOldMincho-Regular', 'Zen Old Mincho';font-size:37.5px;">%C03%</text>
            <text x="134.827px" y="1842.3px" style="font-family:'ZenOldMincho-Regular', 'Zen Old Mincho';font-size:33.333px;">4</text>
            <g transform="matrix(41.6667,0,0,41.6667,502.23,1845.33)">
            </g>
            <text x="182.855px" y="1845.33px" style="font-family:'ZenOldMincho-Regular', 'Zen Old Mincho';font-size:41.667px;">%TaskName04%</text>
            <text x="1080.5px" y="1843.82px" style="font-family:'ZenOldMincho-Regular', 'Zen Old Mincho';font-size:37.5px;">%Q04%</text>
            <text x="1288.02px" y="1843.82px" style="font-family:'ZenOldMincho-Regular', 'Zen Old Mincho';font-size:37.5px;">%U04%</text>
            <text x="1583.77px" y="1843.82px" style="font-family:'ZenOldMincho-Regular', 'Zen Old Mincho';font-size:37.5px;">%P04%</text>
            <text x="1752.97px" y="1843.82px" style="font-family:'ZenOldMincho-Regular', 'Zen Old Mincho';font-size:37.5px;">%C04%</text>
            <text x="135.044px" y="1919.45px" style="font-family:'ZenOldMincho-Regular', 'Zen Old Mincho';font-size:33.333px;">5</text>
            <g transform="matrix(41.6667,0,0,41.6667,501.689,1922.48)">
            </g>
            <text x="182.855px" y="1922.48px" style="font-family:'ZenOldMincho-Regular', 'Zen Old Mincho';font-size:41.667px;">%TaskName05%</text>
            <text x="1080.74px" y="1920.96px" style="font-family:'ZenOldMincho-Regular', 'Zen Old Mincho';font-size:37.5px;">%Q05%</text>
            <text x="1288.51px" y="1920.96px" style="font-family:'ZenOldMincho-Regular', 'Zen Old Mincho';font-size:37.5px;">%U05%</text>
            <text x="1584.26px" y="1920.96px" style="font-family:'ZenOldMincho-Regular', 'Zen Old Mincho';font-size:37.5px;">%P05%</text>
            <text x="1752.97px" y="1920.96px" style="font-family:'ZenOldMincho-Regular', 'Zen Old Mincho';font-size:37.5px;">%C05%</text>
            <text x="134.627px" y="1996.6px" style="font-family:'ZenOldMincho-Regular', 'Zen Old Mincho';font-size:33.333px;">6</text>
            <g transform="matrix(41.6667,0,0,41.6667,502.73,1999.62)">
            </g>
            <text x="182.855px" y="1999.62px" style="font-family:'ZenOldMincho-Regular', 'Zen Old Mincho';font-size:41.667px;">%TaskName06%</text>
            <text x="1080.27px" y="1998.11px" style="font-family:'ZenOldMincho-Regular', 'Zen Old Mincho';font-size:37.5px;">%Q06%</text>
            <text x="1287.57px" y="1998.11px" style="font-family:'ZenOldMincho-Regular', 'Zen Old Mincho';font-size:37.5px;">%U06%</text>
            <text x="1583.32px" y="1998.11px" style="font-family:'ZenOldMincho-Regular', 'Zen Old Mincho';font-size:37.5px;">%P06%</text>
            <text x="1752.97px" y="1998.11px" style="font-family:'ZenOldMincho-Regular', 'Zen Old Mincho';font-size:37.5px;">%C06%</text>
            <text x="135.461px" y="2073.75px" style="font-family:'ZenOldMincho-Regular', 'Zen Old Mincho';font-size:33.333px;">7</text>
            <g transform="matrix(41.6667,0,0,41.6667,500.647,2076.77)">
            </g>
            <text x="182.855px" y="2076.77px" style="font-family:'ZenOldMincho-Regular', 'Zen Old Mincho';font-size:41.667px;">%TaskName07%</text>
            <text x="1081.21px" y="2075.26px" style="font-family:'ZenOldMincho-Regular', 'Zen Old Mincho';font-size:37.5px;">%Q07%</text>
            <text x="1289.44px" y="2075.26px" style="font-family:'ZenOldMincho-Regular', 'Zen Old Mincho';font-size:37.5px;">%U07%</text>
            <text x="1585.19px" y="2075.26px" style="font-family:'ZenOldMincho-Regular', 'Zen Old Mincho';font-size:37.5px;">%P07%</text>
            <text x="1752.97px" y="2075.26px" style="font-family:'ZenOldMincho-Regular', 'Zen Old Mincho';font-size:37.5px;">%C07%</text>
            <text x="134.577px" y="2150.89px" style="font-family:'ZenOldMincho-Regular', 'Zen Old Mincho';font-size:33.333px;">8</text>
            <g transform="matrix(41.6667,0,0,41.6667,502.855,2153.92)">
            </g>
            <text x="182.855px" y="2153.92px" style="font-family:'ZenOldMincho-Regular', 'Zen Old Mincho';font-size:41.667px;">%TaskName08%</text>
            <text x="1080.21px" y="2152.41px" style="font-family:'ZenOldMincho-Regular', 'Zen Old Mincho';font-size:37.5px;">%Q08%</text>
            <text x="1287.46px" y="2152.41px" style="font-family:'ZenOldMincho-Regular', 'Zen Old Mincho';font-size:37.5px;">%U08%</text>
            <text x="1583.2px" y="2152.41px" style="font-family:'ZenOldMincho-Regular', 'Zen Old Mincho';font-size:37.5px;">%P08%</text>
            <text x="1752.97px" y="2152.41px" style="font-family:'ZenOldMincho-Regular', 'Zen Old Mincho';font-size:37.5px;">%C08%</text>
            <text x="134.694px" y="2228.04px" style="font-family:'ZenOldMincho-Regular', 'Zen Old Mincho';font-size:33.333px;">9</text>
            <g transform="matrix(41.6667,0,0,41.6667,502.564,2231.07)">
            </g>
            <text x="182.855px" y="2231.07px" style="font-family:'ZenOldMincho-Regular', 'Zen Old Mincho';font-size:41.667px;">%TaskName09%</text>
            <text x="1080.35px" y="2229.55px" style="font-family:'ZenOldMincho-Regular', 'Zen Old Mincho';font-size:37.5px;">%Q09%</text>
            <text x="1287.72px" y="2229.55px" style="font-family:'ZenOldMincho-Regular', 'Zen Old Mincho';font-size:37.5px;">%U09%</text>
            <text x="1583.47px" y="2229.55px" style="font-family:'ZenOldMincho-Regular', 'Zen Old Mincho';font-size:37.5px;">%P09%</text>
            <text x="1752.97px" y="2229.55px" style="font-family:'ZenOldMincho-Regular', 'Zen Old Mincho';font-size:37.5px;">%C09%</text>
            <text x="125.911px" y="2305.19px" style="font-family:'ZenOldMincho-Regular', 'Zen Old Mincho';font-size:33.333px;">10</text>
            <g transform="matrix(41.6667,0,0,41.6667,498.897,2308.21)">
            </g>
            <text x="182.855px" y="2308.21px" style="font-family:'ZenOldMincho-Regular', 'Zen Old Mincho';font-size:41.667px;">%TaskName10%</text>
            <text x="1082px" y="2306.7px" style="font-family:'ZenOldMincho-Regular', 'Zen Old Mincho';font-size:37.5px;">%Q10%</text>
            <text x="1291.02px" y="2306.7px" style="font-family:'ZenOldMincho-Regular', 'Zen Old Mincho';font-size:37.5px;">%U10%</text>
            <text x="1586.77px" y="2306.7px" style="font-family:'ZenOldMincho-Regular', 'Zen Old Mincho';font-size:37.5px;">%P10%</text>
            <text x="1752.97px" y="2306.7px" style="font-family:'ZenOldMincho-Regular', 'Zen Old Mincho';font-size:37.5px;">%C10%</text>
            <text x="126.744px" y="2382.34px" style="font-family:'ZenOldMincho-Regular', 'Zen Old Mincho';font-size:33.333px;">11</text>
            <g transform="matrix(41.6667,0,0,41.6667,496.814,2385.36)">
            </g>
            <text x="182.855px" y="2385.36px" style="font-family:'ZenOldMincho-Regular', 'Zen Old Mincho';font-size:41.667px;">%TaskName11%</text>
            <text x="1082.93px" y="2383.85px" style="font-family:'ZenOldMincho-Regular', 'Zen Old Mincho';font-size:37.5px;">%Q11%</text>
            <text x="1292.89px" y="2383.85px" style="font-family:'ZenOldMincho-Regular', 'Zen Old Mincho';font-size:37.5px;">%U11%</text>
            <text x="1588.64px" y="2383.85px" style="font-family:'ZenOldMincho-Regular', 'Zen Old Mincho';font-size:37.5px;">%P11%</text>
            <text x="1752.97px" y="2383.85px" style="font-family:'ZenOldMincho-Regular', 'Zen Old Mincho';font-size:37.5px;">%C11%</text>
            <text x="126.177px" y="2459.48px" style="font-family:'ZenOldMincho-Regular', 'Zen Old Mincho';font-size:33.333px;">12</text>
            <g transform="matrix(41.6667,0,0,41.6667,498.23,2462.51)">
            </g>
            <text x="182.855px" y="2462.51px" style="font-family:'ZenOldMincho-Regular', 'Zen Old Mincho';font-size:41.667px;">%TaskName12%</text>
            <text x="1082.3px" y="2461px" style="font-family:'ZenOldMincho-Regular', 'Zen Old Mincho';font-size:37.5px;">%Q12%</text>
            <text x="1291.62px" y="2461px" style="font-family:'ZenOldMincho-Regular', 'Zen Old Mincho';font-size:37.5px;">%U12%</text>
            <text x="1587.37px" y="2461px" style="font-family:'ZenOldMincho-Regular', 'Zen Old Mincho';font-size:37.5px;">%P12%</text>
            <text x="1752.97px" y="2461px" style="font-family:'ZenOldMincho-Regular', 'Zen Old Mincho';font-size:37.5px;">%C12%</text>
            <text x="126.361px" y="2536.63px" style="font-family:'ZenOldMincho-Regular', 'Zen Old Mincho';font-size:33.333px;">13</text>
            <g transform="matrix(41.6667,0,0,41.6667,497.772,2539.66)">
            </g>
            <text x="182.855px" y="2539.66px" style="font-family:'ZenOldMincho-Regular', 'Zen Old Mincho';font-size:41.667px;">%TaskName13%</text>
            <text x="1082.5px" y="2538.14px" style="font-family:'ZenOldMincho-Regular', 'Zen Old Mincho';font-size:37.5px;">%Q13%</text>
            <text x="1292.03px" y="2538.14px" style="font-family:'ZenOldMincho-Regular', 'Zen Old Mincho';font-size:37.5px;">%U13%</text>
            <text x="1587.78px" y="2538.14px" style="font-family:'ZenOldMincho-Regular', 'Zen Old Mincho';font-size:37.5px;">%P13%</text>
            <text x="1752.97px" y="2538.14px" style="font-family:'ZenOldMincho-Regular', 'Zen Old Mincho';font-size:37.5px;">%C13%</text>
            <text x="126.577px" y="2613.78px" style="font-family:'ZenOldMincho-Regular', 'Zen Old Mincho';font-size:33.333px;">14</text>
            <g transform="matrix(41.6667,0,0,41.6667,497.23,2616.8)">
            </g>
            <text x="182.855px" y="2616.8px" style="font-family:'ZenOldMincho-Regular', 'Zen Old Mincho';font-size:41.667px;">%TaskName14%</text>
            <text x="1082.75px" y="2615.29px" style="font-family:'ZenOldMincho-Regular', 'Zen Old Mincho';font-size:37.5px;">%Q14%</text>
            <text x="1292.52px" y="2615.29px" style="font-family:'ZenOldMincho-Regular', 'Zen Old Mincho';font-size:37.5px;">%U14%</text>
            <text x="1588.27px" y="2615.29px" style="font-family:'ZenOldMincho-Regular', 'Zen Old Mincho';font-size:37.5px;">%P14%</text>
            <text x="1752.97px" y="2615.29px" style="font-family:'ZenOldMincho-Regular', 'Zen Old Mincho';font-size:37.5px;">%C14%</text>
            <text x="126.127px" y="2690.93px" style="font-family:'ZenOldMincho-Regular', 'Zen Old Mincho';font-size:33.333px;">15</text>
            <g transform="matrix(41.6667,0,0,41.6667,498.355,2693.95)">
            </g>
            <text x="182.855px" y="2693.95px" style="font-family:'ZenOldMincho-Regular', 'Zen Old Mincho';font-size:41.667px;">%TaskName15%</text>
            <text x="1082.24px" y="2692.44px" style="font-family:'ZenOldMincho-Regular', 'Zen Old Mincho';font-size:37.5px;">%Q15%</text>
            <text x="1291.51px" y="2692.44px" style="font-family:'ZenOldMincho-Regular', 'Zen Old Mincho';font-size:37.5px;">%U15%</text>
            <text x="1587.26px" y="2692.44px" style="font-family:'ZenOldMincho-Regular', 'Zen Old Mincho';font-size:37.5px;">%P15%</text>
            <text x="1752.97px" y="2692.44px" style="font-family:'ZenOldMincho-Regular', 'Zen Old Mincho';font-size:37.5px;">%C15%</text>
            <text x="125.711px" y="2768.08px" style="font-family:'ZenOldMincho-Regular', 'Zen Old Mincho';font-size:33.333px;">16</text>
            <g transform="matrix(41.6667,0,0,41.6667,499.397,2771.1)">
            </g>
            <text x="182.855px" y="2771.1px" style="font-family:'ZenOldMincho-Regular', 'Zen Old Mincho';font-size:41.667px;">%TaskName16%</text>
            <text x="1081.77px" y="2769.59px" style="font-family:'ZenOldMincho-Regular', 'Zen Old Mincho';font-size:37.5px;">%Q16%</text>
            <text x="1290.57px" y="2769.59px" style="font-family:'ZenOldMincho-Regular', 'Zen Old Mincho';font-size:37.5px;">%U16%</text>
            <text x="1586.32px" y="2769.59px" style="font-family:'ZenOldMincho-Regular', 'Zen Old Mincho';font-size:37.5px;">%P16%</text>
            <text x="1752.97px" y="2769.59px" style="font-family:'ZenOldMincho-Regular', 'Zen Old Mincho';font-size:37.5px;">%C16%</text>
            <text x="127.377px" y="2845.22px" style="font-family:'ZenOldMincho-Regular', 'Zen Old Mincho';font-size:33.333px;">17</text>
            <g transform="matrix(41.6667,0,0,41.6667,495.23,2848.25)">
            </g>
            <text x="182.855px" y="2848.25px" style="font-family:'ZenOldMincho-Regular', 'Zen Old Mincho';font-size:41.667px;">%TaskName17%</text>
            <text x="1083.64px" y="2846.74px" style="font-family:'ZenOldMincho-Regular', 'Zen Old Mincho';font-size:37.5px;">%Q17%</text>
            <text x="1294.32px" y="2846.74px" style="font-family:'ZenOldMincho-Regular', 'Zen Old Mincho';font-size:37.5px;">%U17%</text>
            <text x="1590.07px" y="2846.74px" style="font-family:'ZenOldMincho-Regular', 'Zen Old Mincho';font-size:37.5px;">%P17%</text>
            <text x="1752.97px" y="2846.74px" style="font-family:'ZenOldMincho-Regular', 'Zen Old Mincho';font-size:37.5px;">%C17%</text>
            <text x="126.161px" y="2922.37px" style="font-family:'ZenOldMincho-Regular', 'Zen Old Mincho';font-size:33.333px;">18</text>
            <g transform="matrix(41.6667,0,0,41.6667,498.272,2925.4)">
            </g>
            <text x="182.855px" y="2925.4px" style="font-family:'ZenOldMincho-Regular', 'Zen Old Mincho';font-size:41.667px;">%TaskName18%</text>
            <text x="1082.28px" y="2923.88px" style="font-family:'ZenOldMincho-Regular', 'Zen Old Mincho';font-size:37.5px;">%Q18%</text>
            <text x="1291.58px" y="2923.88px" style="font-family:'ZenOldMincho-Regular', 'Zen Old Mincho';font-size:37.5px;">%U18%</text>
            <text x="1587.33px" y="2923.88px" style="font-family:'ZenOldMincho-Regular', 'Zen Old Mincho';font-size:37.5px;">%P18%</text>
            <text x="1752.97px" y="2923.88px" style="font-family:'ZenOldMincho-Regular', 'Zen Old Mincho';font-size:37.5px;">%C18%</text>
            <text x="125.777px" y="2999.52px" style="font-family:'ZenOldMincho-Regular', 'Zen Old Mincho';font-size:33.333px;">19</text>
            <g transform="matrix(41.6667,0,0,41.6667,499.23,3002.54)">
            </g>
            <text x="182.855px" y="3002.54px" style="font-family:'ZenOldMincho-Regular', 'Zen Old Mincho';font-size:41.667px;">%TaskName19%</text>
            <text x="1081.85px" y="3001.03px" style="font-family:'ZenOldMincho-Regular', 'Zen Old Mincho';font-size:37.5px;">%Q19%</text>
            <text x="1290.72px" y="3001.03px" style="font-family:'ZenOldMincho-Regular', 'Zen Old Mincho';font-size:37.5px;">%U19%</text>
            <text x="1586.47px" y="3001.03px" style="font-family:'ZenOldMincho-Regular', 'Zen Old Mincho';font-size:37.5px;">%P19%</text>
            <text x="1752.97px" y="3001.03px" style="font-family:'ZenOldMincho-Regular', 'Zen Old Mincho';font-size:37.5px;">%C19%</text>
            <text x="124.844px" y="3076.67px" style="font-family:'ZenOldMincho-Regular', 'Zen Old Mincho';font-size:33.333px;">20</text>
            <g transform="matrix(41.6667,0,0,41.6667,501.564,3079.69)">
            </g>
            <text x="182.855px" y="3079.69px" style="font-family:'ZenOldMincho-Regular', 'Zen Old Mincho';font-size:41.667px;">%TaskName20%</text>
            <text x="1080.8px" y="3078.18px" style="font-family:'ZenOldMincho-Regular', 'Zen Old Mincho';font-size:37.5px;">%Q20%</text>
            <text x="1288.62px" y="3078.18px" style="font-family:'ZenOldMincho-Regular', 'Zen Old Mincho';font-size:37.5px;">%U20%</text>
            <text x="1584.37px" y="3078.18px" style="font-family:'ZenOldMincho-Regular', 'Zen Old Mincho';font-size:37.5px;">%P20%</text>
            <g transform="matrix(37.5,0,0,37.5,1898.88,3078.18)">
            </g>
            <text x="1752.97px" y="3078.18px" style="font-family:'ZenOldMincho-Regular', 'Zen Old Mincho';font-size:37.5px;">%C20%</text>
            <path d="M118.11,1421.91L118.11,3106.06M2362.2,1421.91L2362.2,3106.06" style="fill:none;stroke:black;stroke-width:5.83px;"/>
            <path d="M1067.72,1424.83L1067.72,3103.14M1741.15,1424.83L1741.15,3103.14M1240.16,1468.18L1240.16,3103.14M1448.07,1468.18L1448.07,3103.14M171.044,1527.31L171.044,3103.14" style="fill:none;stroke:black;stroke-width:3.75px;"/>
            <path d="M118.11,1424.83L2362.2,1424.83M118.11,3103.14L2362.2,3103.14" style="fill:none;stroke:black;stroke-width:5.83px;"/>
            <path d="M1067.72,1468.18L1741.15,1468.18M118.11,1527.31L2362.2,1527.31M118.11,1621.9L2362.2,1621.9M118.11,1714.48L2362.2,1714.48M118.11,1791.63L2362.2,1791.63M118.11,1868.78L2362.2,1868.78M118.11,1945.92L2362.2,1945.92M118.11,2023.07L2362.2,2023.07M118.11,2100.22L2362.2,2100.22M118.11,2177.37L2362.2,2177.37M118.11,2254.51L2362.2,2254.51M118.11,2331.66L2362.2,2331.66M118.11,2408.81L2362.2,2408.81M118.11,2485.96L2362.2,2485.96M118.11,2563.11L2362.2,2563.11M118.11,2640.25L2362.2,2640.25M118.11,2717.4L2362.2,2717.4M118.11,2794.55L2362.2,2794.55M118.11,2871.7L2362.2,2871.7M118.11,2948.85L2362.2,2948.85M118.11,3025.99L2362.2,3025.99" style="fill:none;stroke:black;stroke-width:3.75px;"/>
        </g>
    </g>
    <g transform="matrix(1,0,0,3.10376,-1.13687e-13,-6637.6)">
        <g id="レイヤー3">
            <g>
                <g transform="matrix(1,0,0,0.32219,4.26326e-14,2138.57)">
                    <rect x="1126.84" y="3155.12" width="197.072" height="234.648"/>
                </g>
                <g transform="matrix(1,0,0,0.32219,4.26326e-14,2138.57)">
                    <text x="1204.54px" y="3243.82px" style="font-family:'ZenOldMincho-Regular', 'Zen Old Mincho';font-size:41.667px;fill:white;">注</text>
                    <g transform="matrix(41.6667,0,0,41.6667,1246.21,3331.31)">
                    </g>
                    <text x="1204.54px" y="3331.32px" style="font-family:'ZenOldMincho-Regular', 'Zen Old Mincho';font-size:41.667px;fill:white;">意</text>
                    <text x="1359.35px" y="3220.8px" style="font-family:'ZenOldMincho-Regular', 'Zen Old Mincho';font-size:41.667px;">誤開錠注意（再確認・報・連・相）</text>
                    <text x="1359.35px" y="3287.47px" style="font-family:'ZenOldMincho-Regular', 'Zen Old Mincho';font-size:41.667px;">無断駐車現金・空き駐車場確認！！</text>
                    <g transform="matrix(41.6667,0,0,41.6667,2151.01,3354.13)">
                    </g>
                    <text x="1359.35px" y="3354.13px" style="font-family:'ZenOldMincho-Regular', 'Zen Old Mincho';font-size:41.667px;">車内プレート・ユニホーム・名札着用！！</text>
                    <path d="M1126.84,3155.12L1126.84,3389.76M1323.91,3155.12L1323.91,3389.76" style="fill:none;stroke:black;stroke-width:0.67px;"/>
                    <path d="M118.11,3152.2L118.11,3392.68M2362.2,3152.2L2362.2,3392.68M118.11,3155.12L2362.2,3155.12M118.11,3389.76L2362.2,3389.76" style="fill:none;stroke:black;stroke-width:5.83px;"/>
                </g>
            </g>
        </g>
    </g>
</svg>
